<svg xmlns="http://www.w3.org/2000/svg" viewBox="0 0 900 300"><defs><style>.cls-1,.cls-2,.cls-3{fill:none;}.cls-1,.cls-2,.cls-3,.cls-4{stroke:#000;stroke-miterlimit:10;}.cls-1{stroke-width:2px;}.cls-2{stroke-width:4px;}</style></defs><g id="Warstwa_1" data-name="Warstwa 1"><path d="M348.41,291.81a54.81,54.81,0,0,1-9.82,1.16c-3.28.11-6.55.06-9.83.09l-19.64.07-39.3.14-78.59.28-78.59.28-39.3.14-19.65,0a60.51,60.51,0,0,1-10.2-.51A32.42,32.42,0,0,1,33.4,290.2,28.94,28.94,0,0,1,25,283.53a34.41,34.41,0,0,1-5.6-9,44.25,44.25,0,0,1-3-10,31.86,31.86,0,0,1-.57-5.29v-4.92l-.09-39.32-.17-78.66,0-39.32v-8a4.6,4.6,0,0,1,0-.5l0-.37c.06-.48.13-.93.21-1.39a24.23,24.23,0,0,1,4.28-10.22,18.62,18.62,0,0,1,4.17-4.09c.84-.51,1.7-1,2.58-1.46a28.33,28.33,0,0,1,2.75-1c.94-.19,1.88-.45,2.82-.57l2.81-.19h4.93l78.59,0L116,71.14h0c4.58-11.31,9.41-22.43,14.68-33.44,2.65-5.49,5.41-10.95,8.49-16.3,1.55-2.68,3.17-5.32,5-7.92a41.11,41.11,0,0,1,3.11-3.83,19.11,19.11,0,0,1,2-1.84,8.76,8.76,0,0,1,3.08-1.61A5.64,5.64,0,0,1,153.55,6H298.39c.21,0,.32,0,.62,0a8.9,8.9,0,0,1,1.05.1c.32.08.66.15.95.25s.57.21.84.33a11.47,11.47,0,0,1,2.57,1.7,24.17,24.17,0,0,1,3.49,3.83,64.28,64.28,0,0,1,5,8.07c3,5.47,5.47,11.07,7.84,16.71,4.7,11.29,8.8,22.72,12.57,34.34h0l-2.85-2.09,19,1.29,9.49.63c3.16.2,6.32.48,9.48.51v1.13c-3.16,0-6.32.31-9.48.51l-9.49.63-19,1.3-2,.13-.9-2.23h0c-3.7-11.4-7.79-22.78-12.39-33.84-2.32-5.52-4.77-11-7.57-16.16a61.17,61.17,0,0,0-4.56-7.32c-1.63-2.17-3.72-4.21-4.74-3.83H153.87a3.33,3.33,0,0,0-.89.53,13.22,13.22,0,0,0-1.32,1.23,32,32,0,0,0-2.6,3.22c-1.67,2.32-3.22,4.84-4.7,7.4-3,5.14-5.67,10.5-8.28,15.9-5.19,10.83-10,21.92-14.51,33.06h0l-.76,1.89h-2l-78.59,0h-4.9l-2.09.14c-.68.09-1.32.28-2,.4s-1.23.47-1.86.67-1.13.63-1.7,1a12.63,12.63,0,0,0-2.8,2.76,18.58,18.58,0,0,0-3.22,7.74c-.06.35-.11.71-.16,1l0,.25c0,.11,0,0,0,.11v8l0,39.27L21.24,215l-.09,39.26v4.91a25.15,25.15,0,0,0,.47,4.46,38.7,38.7,0,0,0,2.61,8.81,26.38,26.38,0,0,0,11.6,13.2,27.24,27.24,0,0,0,8.48,2.81,55.93,55.93,0,0,0,9.39.49l19.65,0,39.3.14,78.59.28,78.59.28,39.3.14,19.64.07c3.28,0,6.55,0,9.83.09a54.81,54.81,0,0,1,9.82,1.16Z"/><rect class="cls-1" x="59.61" y="85.95" width="35.84" height="18.97" rx="4.5"/><path d="M167.13,33.24c5.09-.83,10.19-1.42,15.28-2l15.29,0h76.42c5.1.61,10.19,1.2,15.28,2-5.09.81-10.18,1.4-15.28,2H197.7l-15.29,0C177.32,34.67,172.22,34.08,167.13,33.24Z"/><polygon points="18.5 118.14 126.02 119.09 126.02 121.2 18.5 122.14 18.5 118.14"/><path class="cls-2" d="M312.46,197.07a86.5,86.5,0,1,1-40.56-100"/><path class="cls-3" d="M84.34,96.53l-6.56,6.56-6.57-6.56C66.05,91.37,72.62,84.8,77.78,90,83,84.78,89.53,91.34,84.34,96.53Z"/><path class="cls-4" d="M595,206.8l-5.27,3.42-3.42-5.28c-2.68-4.15,2.59-7.56,5.28-3.42C595.77,198.83,599.18,204.1,595,206.8Z"/><path class="cls-3" d="M461.16,111.33l-1.78,9.11-9.11-1.77c-7.16-1.4-5.38-10.51,1.78-9.11C453.45,102.36,462.56,104.13,461.16,111.33Z"/><path class="cls-3" d="M537.71,262.83l-7,6.07-6.07-7c-4.77-5.52,2.25-11.59,7-6.07C537.2,251,543.26,258,537.71,262.83Z"/><path class="cls-3" d="M365,211.36l-6.56,6.56-6.57-6.56c-5.15-5.16,1.41-11.72,6.57-6.56C363.63,199.61,370.2,206.17,365,211.36Z"/><path class="cls-3" d="M685.58,119.12l-8.21,4.34L673,115.25c-3.41-6.45,4.8-10.79,8.21-4.34C687.72,107.48,692.06,115.69,685.58,119.12Z"/><path class="cls-3" d="M682,211.36l-6.56,6.56-6.57-6.56c-5.15-5.16,1.41-11.72,6.57-6.56C680.63,199.61,687.2,206.17,682,211.36Z"/><path class="cls-3" d="M333.11,122.59l-7.74,5.12L320.24,120c-4-6.08,3.71-11.21,7.74-5.13C334.1,110.8,339.22,118.53,333.11,122.59Z"/><path class="cls-3" d="M830.9,119.11l-4.17,8.29-8.29-4.17c-6.52-3.28-2.35-11.57,4.17-8.29C825.9,108.38,834.19,112.55,830.9,119.11Z"/></g><g id="Warstwa_3" data-name="Warstwa 3"><path d="M217.55,216q-6.6,0-10.17-3.53a12.15,12.15,0,0,1-3.57-9,19,19,0,0,1,.34-3.59,20.79,20.79,0,0,1,1.14-3.85q3.38-9.1,13.61-17.95,16.17-13.86,41-19a60.8,60.8,0,0,0,1.62-13.6q0-12.43-6.06-20.13a39.57,39.57,0,0,0-3.64-3.72q-11.31,5.25-11.32,13,0,5.52,5.39,9.87a23,23,0,0,0,12.8,4.88c.45,0,.68.13.68.38,0,1-.72,1.41-2.16,1.16q-10-1.67-16-6.42-5.38-4.23-5.39-9.61,0-8.85,13.07-15.14a14.3,14.3,0,0,0-6.87-1.66,16.05,16.05,0,0,0-8.89,2.69q-8.22,5.13-8.22,16.41a21.85,21.85,0,0,0,4.44,13.73,15.47,15.47,0,0,0,12.67,6.54,5.92,5.92,0,0,1,1.88.38c0,.35-.36.52-1.08.52a18.35,18.35,0,0,1-14.81-6.8,21.48,21.48,0,0,1-4.85-14.11q0-11.67,9.43-17.57a19,19,0,0,1,10.23-3,17.82,17.82,0,0,1,7.95,1.92c1.08-.42,2.2-.85,3.37-1.28s2.38-.81,3.64-1.15q5.93-1.66,21-2.57,3.1-2.56,4.32-2.56c.44,0,.71.17.8.51a10.37,10.37,0,0,0,.27,1.93l6.47.25a19.08,19.08,0,0,1,2.83.26c3.41.43,5.16,1,5.25,1.79.09.52.05.82-.13.9s-.54.09-1.35,0a7.71,7.71,0,0,0-1.35-.13H290.3l-6.74-.13q-2.28,18-10.64,40.4l5.93-.38h.94c1.53,0,2.29.17,2.29.51,0,.51-.81.82-2.42.9-2.43.17-4.85.43-7.28.77q-14.69,38.87-32.87,49.76Q227.26,216,217.55,216Zm-.94-2.31q8.89,0,21.15-8,15.63-10.26,28.83-46l-5.52,1a82.76,82.76,0,0,1-18.19,33.6q-13.74,15.39-28.29,15.39a20.58,20.58,0,0,1-3.23-.25c-.27,0-.41-.13-.41-.39,0-.43.18-.64.54-.64a20.79,20.79,0,0,0,3.23.26q13.88,0,27.22-14.88a80.56,80.56,0,0,0,17.38-32.57q-26,6.41-40.15,21-12.66,12.83-12.66,22.44Q206.51,213.72,216.61,213.71Zm45-55,2.82-.51a9.34,9.34,0,0,1,1.35-.2,12.15,12.15,0,0,0,1.48-.19,214.77,214.77,0,0,0,6.6-21.93,149.85,149.85,0,0,0,3.37-19c-1.79.09-3.93.24-6.4.45s-5.27.54-8.42,1c-3.23.86-6.1,1.71-8.62,2.57a26.52,26.52,0,0,1,3.37,3.59q6.19,7.81,6.2,20.39A57.71,57.71,0,0,1,261.61,158.69Z"/><path d="M290.16,180.11a6.59,6.59,0,0,1-5.52-3,12.49,12.49,0,0,1-2.15-7.57,22.78,22.78,0,0,1,1.34-7.57q5-14.36,12.26-15a2.92,2.92,0,0,1,2.29-.9,8.06,8.06,0,0,1,5.32,2.31,7.63,7.63,0,0,1,2.9,4.87,6.35,6.35,0,0,0,5.12,2.06,30.27,30.27,0,0,0,3.23-.26,30.61,30.61,0,0,1,3.24-.26c.35,0,.44.22.27.64s-.54.73-1.35,1.16a16.9,16.9,0,0,1-6.06,1.41h-1.62a8.33,8.33,0,0,1-3.37-.51q.68,4.88-4.85,14Q296.23,180.1,290.16,180.11Zm.81-2.57q3.51,0,7.55-6a38.56,38.56,0,0,0,2.09-3.72,25,25,0,0,0,1.68-4.62c.9-2.91,1.26-5,1.08-6.29q-5-.76-5.8-5.51-3.63,1-7,8.85-3.1,7.31-3.1,11.8C287.47,175.71,288.64,177.54,291,177.54Z"/><path d="M317.78,179.08c-2.88-.43-4.31-2.35-4.31-5.77q0-7.81,7.54-17.31,7.82-10,16.17-10a11.18,11.18,0,0,1,5.19,1.22,4,4,0,0,1,2.35,3.79c0,2-.85,3.07-2.56,3.33a4.76,4.76,0,0,0,.81-2.56c0-1.88-1.12-2.83-3.37-2.83s-4.49,1-7,3.08A46.17,46.17,0,0,0,319,169.59a13.38,13.38,0,0,0-1.34,5.13c0,1.11.4,1.67,1.21,1.67s2.47-1,4.71-2.95q2.3-2.06,10-12.44c1.35-1.8,2.43-2.69,3.24-2.69s1.07,1.79,1.07,5.38v7.18q1.22,5.65,4.18,5.65a10,10,0,0,0,4-1.09,15.41,15.41,0,0,0,4.65-3.53l2.43-2.44c.27-.08.58.09.94.52q-.54,1.41-4.72,4.74-5.25,4.23-9.7,4.23a7.88,7.88,0,0,1-2.42-.38c-2.34-.77-3.86-3.16-4.58-7.18-.18-1.11-.34-2-.47-2.82a11,11,0,0,1-.2-1.93V166a56.79,56.79,0,0,1-4.72,6.41Q321.42,179.59,317.78,179.08Z"/><path d="M374.5,181.9q-7,0-7-8.59a42.65,42.65,0,0,1,2-11.54l2.16-7.31-9.43,10.26q-3.37,3.72-5.26,6.15a17.66,17.66,0,0,0-2.29,3.47q-1.62,4.09-5,4.1c-.81,0-1.08-.38-.81-1.15l2.16-7.95a47,47,0,0,0,1.48-6.87,44,44,0,0,0,.4-5.58,11.62,11.62,0,0,0-.13-1.79,8.91,8.91,0,0,1-.14-1.54,4,4,0,0,1,1.75-3.08,5.61,5.61,0,0,1,3.51-1.41c1.34,0,1.88.73,1.61,2.18s-.56,2.93-.87,4.43-.61,3-.88,4.42l-2.15,9.36q8.07-7.05,17.11-20.52c.35-.59,1.21-.89,2.55-.89,2.16,0,3.28.42,3.37,1.28s-.18,2.31-1.08,4.62c-1.34,3.76-2.29,6.71-2.82,8.84a56.07,56.07,0,0,0-2,12.83c0,3.08.71,4.62,2.15,4.62q2.43,0,5.52-2.57a26,26,0,0,0,2.7-2.31c.27,0,.31.35.13,1a4,4,0,0,1-1.34,2.18A10.68,10.68,0,0,1,374.5,181.9Z"/><path d="M408.58,181.9q-7,0-7-8.59a43,43,0,0,1,2-11.54l2.16-7.31-9.43,10.26q-3.37,3.72-5.25,6.15a17.87,17.87,0,0,0-2.3,3.47c-1.07,2.73-2.74,4.1-5,4.1-.81,0-1.08-.38-.81-1.15l2.16-7.95a45.7,45.7,0,0,0,1.48-6.87,44,44,0,0,0,.4-5.58,10.49,10.49,0,0,0-.13-1.79,8.91,8.91,0,0,1-.14-1.54,4,4,0,0,1,1.76-3.08,5.56,5.56,0,0,1,3.5-1.41c1.35,0,1.88.73,1.61,2.18s-.56,2.93-.87,4.43-.61,3-.88,4.42l-2.15,9.36q8.08-7.05,17.11-20.52c.36-.59,1.21-.89,2.56-.89,2.15,0,3.27.42,3.37,1.28s-.19,2.31-1.08,4.62q-2,5.64-2.83,8.84a56.07,56.07,0,0,0-2,12.83q0,4.62,2.15,4.62,2.43,0,5.53-2.57a26.28,26.28,0,0,0,2.69-2.31c.27,0,.31.35.14,1a4,4,0,0,1-1.35,2.18A10.68,10.68,0,0,1,408.58,181.9Z"/><path d="M422.18,179.08q-4.31-.65-4.31-5.77,0-7.81,7.55-17.31,7.81-10,16.16-10a11.15,11.15,0,0,1,5.19,1.22,4,4,0,0,1,2.36,3.79c0,2-.86,3.07-2.56,3.33a4.76,4.76,0,0,0,.81-2.56c0-1.88-1.13-2.83-3.37-2.83s-4.49,1-7,3.08a46.14,46.14,0,0,0-13.6,17.57,13.42,13.42,0,0,0-1.35,5.13c0,1.11.4,1.67,1.21,1.67s2.47-1,4.72-2.95q2.28-2.06,10-12.44c1.34-1.8,2.42-2.69,3.23-2.69s1.08,1.79,1.08,5.38v7.18q1.22,5.65,4.17,5.65a10,10,0,0,0,4-1.09,15.41,15.41,0,0,0,4.65-3.53l2.42-2.44c.27-.08.58.09.94.52q-.54,1.41-4.71,4.74Q448.46,179,444,179a7.9,7.9,0,0,1-2.43-.38q-3.49-1.15-4.58-7.18c-.18-1.11-.33-2-.47-2.82a12,12,0,0,1-.2-1.93V166a55.47,55.47,0,0,1-4.72,6.41Q425.82,179.59,422.18,179.08Z"/><path d="M494.53,185.49a12,12,0,0,1-6.74-2.05q-3.23-2.06-3.23-3.46c0-.34.22-.51.67-.51.27,0,.58.25.94.77a4.71,4.71,0,0,0,1.35,1.28,8.87,8.87,0,0,0,4.72,1.79,8.26,8.26,0,0,0,1.88-.25q6.87-1.29,13.34-16.42a121.17,121.17,0,0,0,4.92-13.46q2.22-7.32,4.11-16l-2.7.26c-.9.09-1.8.22-2.69.39a134.48,134.48,0,0,1-8.49,25.9q-6.47,14.37-16.71,14.37a9.58,9.58,0,0,1-7.2-3,10.85,10.85,0,0,1-2.9-7.88q0-6.42,5.12-13.6,4.17-5.9,14.15-11.16-15.9-5.13-15.9-13,0-6.15,9.43-10.52,9.7-4.74,25.46-5.13l.41-6.28c.17-.26.35-.39.53-.39.45,0,.63.18.54.52l-.4,6.15h5.93q2.41-2.68,3.9-2.69c.81,0,1.3.86,1.49,2.57,1.52.17,2.29.64,2.29,1.41q0,1.53-3,1.53c-.45,3.26-1,6.5-1.68,9.75s-1.37,6.5-2.09,9.75a51.44,51.44,0,0,1,7.27.9q6.08-11.67,11.46-17.57,8.07-9,18.18-10.14a4.47,4.47,0,0,1,1-.12h.94a16.27,16.27,0,0,1,16.3,14.62c.18,1.19.14,1.84-.14,1.92s-.45-.51-.53-1.54a11.78,11.78,0,0,0-5.39-8.85,17.9,17.9,0,0,0-10.24-2.82,21,21,0,0,0-10.51,2.82q-9,5.13-19.26,22.06,7.8,2.06,12.12,6.48t4.31,9.55q0,8.85-10.64,13.6,7.41,9,11.45,11.54c3.23,2.05,5.93,3.08,8.08,3.08,3.42,0,5.12-2.14,5.12-6.42a18.13,18.13,0,0,0-3.77-10.9.72.72,0,0,1-.27-.51.24.24,0,0,1,.27-.26c.18,0,.49.22.94.65a15.46,15.46,0,0,1,4.45,10.64,9.81,9.81,0,0,1-2.63,6.93,9.06,9.06,0,0,1-6.94,2.82q-6.19,0-13.06-5.77a48.64,48.64,0,0,1-9-10.14,26.64,26.64,0,0,1-3.77.26,18.6,18.6,0,0,1-9.7-2.56c-.27-.09-.32-.35-.14-.77.09-.26.36-.3.81-.13a16.5,16.5,0,0,0,8.89,2.43,20.8,20.8,0,0,0,3.24-.25q-1.89-3.58-4.72-8.72l-6.87-12.06q-9,31.68-21,37.84A9.61,9.61,0,0,1,494.53,185.49ZM487,176q8.76,0,14.69-12.69a111.59,111.59,0,0,0,4.44-11.67q2-6.28,3.78-13.6a43.75,43.75,0,0,0-11.32,3.85l.54.13c.27.17.4.3.4.38,0,.26-.2.47-.6.64a2.08,2.08,0,0,1-1.28.13l-.95-.25q-9.44,5-13.87,11.28t-4.45,12.06a10,10,0,0,0,2.49,7.05A8,8,0,0,0,487,176Zm9.7-34.49a52,52,0,0,1,13.47-4.62q2.16-10,3.51-20.27-14,.39-22.37,4.88Q484,125.61,484,131,484,138.69,496.68,141.51Zm14.69-4.88a17.32,17.32,0,0,1,2.69-.38l2.56-.13q1.35-6.17,2-11t.75-8.4a20.82,20.82,0,0,0-2.3-.13h-2.29c-.45,3.43-.94,6.8-1.48,10.14S512.08,133.38,511.37,136.63ZM523,149.33l5.93-11.42-3.5-.51c-1.17-.17-2.38-.3-3.64-.38l-.94,4c-.27,1.28-.59,2.52-.95,3.72l1.49,2.18c.18.34.4.73.67,1.16A12.62,12.62,0,0,0,523,149.33ZM536,166q9.57-4.62,9.57-12.82a11.73,11.73,0,0,0-3.78-8.6q-4-4.35-11.45-6.28-2.16,4.37-6.73,11.8c.62.85,1.36,1.82,2.22,2.88s1.77,2.25,2.76,3.53Z"/><path d="M567.28,178.83c-.9,0-1.31-.43-1.22-1.29q.41-1.66,1-5.06c.35-2.27.76-5.2,1.21-8.79.18-1.62.36-3.1.54-4.42s.31-2.55.4-3.66l.41-4.74a3.28,3.28,0,0,1,1.81-2.44,6.6,6.6,0,0,1,3.44-1c1.62,0,2.2.65,1.75,1.93L574.68,156c-.45,1.2-.85,2.43-1.21,3.72s-.76,2.61-1.21,4a59.81,59.81,0,0,1,8.08-10.39c3.51-3.41,6.11-5.13,7.82-5.13q3.23,0,4.58,3.47c1,2.22,1,3.33.13,3.33-.18,0-.49-.34-.94-1a3.71,3.71,0,0,0-3.37-2.31q-5.38,0-13.34,11.41a47.9,47.9,0,0,0-6.73,14.75A1.2,1.2,0,0,1,567.28,178.83Z"/><path d="M598,180.11a9.85,9.85,0,0,1-6.74-2.37c-1.79-1.59-2.69-4.3-2.69-8.15a22.56,22.56,0,0,1,.27-3.33,29.42,29.42,0,0,1,5.66-12.44q5.52-7.19,11.45-7.19a11.15,11.15,0,0,1,5.79,1.61,5.13,5.13,0,0,1,2.7,4.68,11.65,11.65,0,0,1-3,7.18h2.7a1.47,1.47,0,0,1,.8.13q0,.77-5,1.67c-2,2.14-3.46,3.2-4.45,3.2-.18,0-.26-.08-.26-.25a25.53,25.53,0,0,0,2-2.57c-1.17,0-2.72.07-4.65.19s-4.24.37-6.94.71a20,20,0,0,0-1.48,7.18q0,4.23,2.42,6.16a5.39,5.39,0,0,0,3.64,1.28h.81a2.54,2.54,0,0,0,.81-.13q8.61-1.41,16.7-9.49c.45-.6.81-.68,1.08-.26a.53.53,0,0,1,.14.39,2.07,2.07,0,0,1-.81,1.28,30.2,30.2,0,0,1-8.89,6.8Q603.37,180.11,598,180.11Zm-.94-19.62c1.25-.09,2.87-.13,4.85-.13l6.73-.13a21.25,21.25,0,0,0,1.89-4.49,11.94,11.94,0,0,0,.4-2.69c0-1.8-.72-2.7-2.15-2.7-1.8,0-3.77,1-5.93,3.08a47.33,47.33,0,0,0-3.37,3.53A18.36,18.36,0,0,0,597.05,160.49Z"/><path d="M626.69,179.21a12,12,0,0,1-3-.32,7.76,7.76,0,0,1-1.89-.71c-1.07-.77-1.61-2.22-1.61-4.36a15.45,15.45,0,0,1,.2-2.3c.14-.86.29-1.84.47-3a76.27,76.27,0,0,1,3.5-11c.45-1.11.83-2.1,1.15-2.95s.56-1.58.74-2.18l.67-1.67a70.64,70.64,0,0,0-10,1.15h-.13c-.36,0-.54-.42-.54-1.28a1.77,1.77,0,0,1,1.21-1.92q.94-.39,10.38-1c.71-2.22,1.59-4.81,2.62-7.76s2.23-6.22,3.57-9.81c.09-.51.45-.77,1.08-.77s1.53.58,2.43,1.73a5.5,5.5,0,0,1,1.34,3.27,1.69,1.69,0,0,1-.13.77l-6.6,12.57c1.16-.08,2.22-.13,3.16-.13h2.77q7.68,0,7.81,1.16,0,.51-6.47,1c-1.16.09-2.2.15-3.1.2a13.14,13.14,0,0,0-2.42.32l-2.56.38q-1.49,0-4.18,10.65-2.41,9.48-2.42,11.28,0,3.86,3,3.85,2.29,0,9-3.46c.54-.34,1.21-.79,2-1.35s1.8-1.26,3-2.12c1.8-1.45,2.92-2.18,3.37-2.18.18,0,.31.18.41.52q0,1.78-7,6.41Q631.27,179.21,626.69,179.21Z"/><path d="M641.37,182q-5.11,0-5.12-2.05,0-2.43,4.31-2.69,5.66-.25,14-1.29a5.61,5.61,0,0,0,1.08-2.95c0-1.36-1-2.9-3.1-4.61q-7.41-6.16-7.41-11.8a7.16,7.16,0,0,1,.94-3.59q4.57-7.44,11.32-7.44a8.26,8.26,0,0,1,4.85,1.41,3.88,3.88,0,0,1,2,3.08,2.39,2.39,0,0,1-.2,1c-.14.3-.29.45-.47.45s-.41-.26-.68-.77a2.27,2.27,0,0,0-2.56-2.18c-2.24,0-4.58,1.15-7,3.46s-3.5,4.66-3.5,6.8q0,2.82,3.9,7.31t3.91,6.54a6.79,6.79,0,0,1-.67,2.56c1.16-.51,2.62-1.23,4.37-2.18s3.84-2.09,6.27-3.46c.27.17-.77,1.24-3.1,3.21l-8.62,4.87c-.72,1.2-2.61,2.22-5.66,3.08A30.33,30.33,0,0,1,641.37,182Z"/><path d="M674.24,180.75q-6.74,0-6.74-8.47a25.73,25.73,0,0,1,.81-6A40.39,40.39,0,0,1,674.24,154q5.52-7.95,10.64-8a7.4,7.4,0,0,1,4.85,1.93,4.55,4.55,0,0,1,1.62,3.59,1.7,1.7,0,0,1-.14.77l-.27.25c-.27,0-.58-.29-.94-.89a3,3,0,0,0-3-1.54q-3.78,0-8.22,6.79a39.71,39.71,0,0,0-5.25,10.27,15.19,15.19,0,0,0-1.35,6.15q0,5.13,4.17,5.13,7.14,0,16.44-9.87c.45-.43.76-.47.94-.13v.13a3,3,0,0,1-.81,1.53,33.48,33.48,0,0,1-8.35,6.93Q678.42,180.75,674.24,180.75Z"/><path d="M694.85,179c-.27,0-.4-.12-.4-.38q-.27-3.58,1.61-13.85.95-5.13,1.82-8.66a50.79,50.79,0,0,1,1.55-5.32c-2.78.6-4.27,1.67-4.45,3.21-.18,1-.49,1.53-.94,1.53s-.72-.51-.54-1.53q.13-3.6,6.87-5.52a84.81,84.81,0,0,1,4.25-10.77,102.08,102.08,0,0,1,5.59-10.26q7.27-11.28,15.42-17.25t16.64-6q10.92,0,14.55,8.73a11.76,11.76,0,0,1,.94,4.74q0,7.44-7.68,12.95-11.45,8.47-45.93,18.86-1.89,4.88-4.58,20.52l11.18-14.11a7.23,7.23,0,0,1,2-3.4q1.68-1.86,2.76-1.86c.63,0,.95.47.95,1.41v.64a2.28,2.28,0,0,1-.14.77,113.27,113.27,0,0,0-1.62,13.85c0,5.48,1,8.21,3.1,8.21q3.51,0,9.57-6.8l2.83-3.33c.27-.26.49,0,.67.77q-1.08,2.31-5.52,6.67-6.06,6-10.38,6a5,5,0,0,1-2.42-.52q-3.24-1.53-3.23-10.39a43.14,43.14,0,0,1,.2-4.36c.13-1.36.29-2.65.47-3.84q-3.24,3.59-10.64,12.44a9,9,0,0,1-1.82,4.87C696.44,178.31,695.57,179,694.85,179Zm9.83-31.67a167.53,167.53,0,0,0,23-8.6q14.82-6.54,21.69-11.54t6.74-10.26a6,6,0,0,0-.54-2.56q-2.7-6.42-12.93-6.42a21.79,21.79,0,0,0-5,.52q-14.28,2.43-22.63,15.64a57.11,57.11,0,0,0-4,7.95Q708.46,137.92,704.68,147.28Z"/><path d="M727.59,180.62c-.72,0-1-.38-.81-1.15Q730.95,163.18,731,156v-1.8a6.9,6.9,0,0,0-.13-1.41,3.92,3.92,0,0,1,1.89-3.08,6.09,6.09,0,0,1,3.63-1.41c1,0,1.48.35,1.48,1a2.75,2.75,0,0,1-.13.9q-1.08,2.31-2.43,11.92c-.45,3-.8,5.26-1.07,6.8a22.46,22.46,0,0,1-.68,2.69q4.86-4.23,13.21-17.18,2.82-4.36,4.85-4.36c1.52,0,2.29,2,2.29,5.9a73.7,73.7,0,0,1-1.08,13.21q4-4.23,12.66-14.75a9.77,9.77,0,0,1,2.22-3.66c1.13-1.24,2.05-1.86,2.77-1.86s.94.52.94,1.54a7.56,7.56,0,0,1-.14,1.54q-1.34,7.3-2,11.54a45.66,45.66,0,0,0-.67,5.52c0,4.28,1.57,6.41,4.72,6.41a10.45,10.45,0,0,0,5.65-2.05,39.64,39.64,0,0,0,6.34-5.26c.62-.6,1.21-1.2,1.75-1.79l1.61-1.8a.43.43,0,0,1,.27-.13c.36,0,.59.3.68.9q-.94,2.17-6.6,7.18Q775.55,179,770.43,179a6.31,6.31,0,0,1-2.7-.51q-4.58-1.92-4.58-9.23a58.78,58.78,0,0,1,1.35-10.78,105.4,105.4,0,0,0-11.86,13.09,7.6,7.6,0,0,1-3,5.51q-2.7,2.31-4.18,2.31c-.36,0-.45-.09-.27-.26a27,27,0,0,0,1.28-4.68c.41-2,.83-4.47,1.28-7.37a93.68,93.68,0,0,0,1.35-12.44L740,165.87q-6.6,8.34-7.41,10.78C731.67,179.29,730,180.62,727.59,180.62Z"/><path d="M786.73,179.08c-2.88-.43-4.31-2.35-4.31-5.77q0-7.81,7.54-17.31,7.81-10,16.17-10a11.14,11.14,0,0,1,5.18,1.22,4,4,0,0,1,2.36,3.79c0,2-.85,3.07-2.56,3.33a4.76,4.76,0,0,0,.81-2.56c0-1.88-1.13-2.83-3.37-2.83s-4.49,1-7,3.08a46.07,46.07,0,0,0-13.61,17.57,13.42,13.42,0,0,0-1.35,5.13c0,1.11.41,1.67,1.21,1.67s2.47-1,4.72-2.95q2.29-2.06,10-12.44c1.35-1.8,2.42-2.69,3.23-2.69s1.08,1.79,1.08,5.38v7.18q1.22,5.65,4.18,5.65a10,10,0,0,0,4-1.09,15.41,15.41,0,0,0,4.65-3.53l2.42-2.44c.27-.08.59.09,1,.52-.36.94-1.94,2.52-4.72,4.74Q813,179,808.55,179a7.79,7.79,0,0,1-2.42-.38q-3.51-1.15-4.58-7.18c-.19-1.11-.34-2-.48-2.82a12,12,0,0,1-.2-1.93V166a56.2,56.2,0,0,1-4.71,6.41Q790.36,179.59,786.73,179.08Z"/><path d="M843.44,181.9q-7,0-7-8.59a42.65,42.65,0,0,1,2-11.54l2.15-7.31-9.43,10.26q-3.36,3.72-5.25,6.15a17.66,17.66,0,0,0-2.29,3.47q-1.62,4.09-5,4.1c-.8,0-1.07-.38-.8-1.15l2.15-7.95a45.7,45.7,0,0,0,1.48-6.87,44.16,44.16,0,0,0,.41-5.58,10.41,10.41,0,0,0-.14-1.79,8.89,8.89,0,0,1-.13-1.54,4,4,0,0,1,1.75-3.08,5.58,5.58,0,0,1,3.5-1.41c1.35,0,1.89.73,1.62,2.18s-.56,2.93-.88,4.43-.6,3-.87,4.42l-2.16,9.36q8.08-7.05,17.11-20.52c.36-.59,1.21-.89,2.56-.89,2.16,0,3.28.42,3.37,1.28s-.18,2.31-1.08,4.62q-2,5.64-2.83,8.84a56.64,56.64,0,0,0-2,12.83q0,4.62,2.16,4.62,2.42,0,5.52-2.57a27.53,27.53,0,0,0,2.7-2.31c.26,0,.31.35.13,1a3.92,3.92,0,0,1-1.35,2.18A10.65,10.65,0,0,1,843.44,181.9Z"/><path d="M877.53,181.9q-7,0-7-8.59a42.65,42.65,0,0,1,2-11.54l2.16-7.31-9.43,10.26q-3.37,3.72-5.26,6.15a17.66,17.66,0,0,0-2.29,3.47q-1.62,4.09-5,4.1c-.81,0-1.08-.38-.81-1.15l2.15-7.95a45.81,45.81,0,0,0,1.49-6.87,44,44,0,0,0,.4-5.58,11.62,11.62,0,0,0-.13-1.79,8.91,8.91,0,0,1-.14-1.54,4,4,0,0,1,1.75-3.08,5.6,5.6,0,0,1,3.5-1.41c1.35,0,1.89.73,1.62,2.18s-.56,2.93-.87,4.43-.61,3-.88,4.42l-2.16,9.36q8.08-7.05,17.11-20.52c.36-.59,1.22-.89,2.56-.89,2.16,0,3.28.42,3.37,1.28s-.18,2.31-1.08,4.62c-1.34,3.76-2.29,6.71-2.83,8.84a56.64,56.64,0,0,0-2,12.83q0,4.62,2.16,4.62,2.43,0,5.52-2.57a26,26,0,0,0,2.7-2.31c.27,0,.31.35.13,1a3.92,3.92,0,0,1-1.35,2.18A10.64,10.64,0,0,1,877.53,181.9Z"/><path d="M395.59,265.9a7.46,7.46,0,0,1-4.72-1.78,8.6,8.6,0,0,1-3.08-5.79,11.45,11.45,0,0,1-.12-1.65V255q0-8,2.84-21.15,1.07-5.33,2.19-9.58c.75-2.83,1.51-5.4,2.3-7.68a4.4,4.4,0,0,1-3.42-.59,1.93,1.93,0,0,1-.83-1.42.52.52,0,0,1,.59-.59,14.55,14.55,0,0,0,2.36-.24,15.28,15.28,0,0,1,2-.23Q401,199.71,404.22,194q7.45-13.35,15.13-13.35a9.69,9.69,0,0,1,2.6.35,3.71,3.71,0,0,1,2.84,3.78,2.77,2.77,0,0,1-1.66,2.84,6.53,6.53,0,0,0,.24-1.54q0-3-3.07-2.71-5.32.1-12.65,12.52a95.11,95.11,0,0,0-4.79,8.93,84.83,84.83,0,0,0-3.48,8.57h10.4c.63,0,.94.12.94.35s-.71.63-2.12.95a42.44,42.44,0,0,1-10.05,1.42q-3.32,8.27-5.32,22.93A124.35,124.35,0,0,0,392.05,253q0,8.16,2.72,10.88a8.52,8.52,0,0,0,1.53.94c.55.4.83.63.83.71C397.13,265.78,396.62,265.9,395.59,265.9Z"/><path d="M413.44,242.49a5.7,5.7,0,0,1-4.85-2.71,12,12,0,0,1-1.89-7,21.91,21.91,0,0,1,1.19-7q4.37-13.25,10.75-13.83a2.5,2.5,0,0,1,2-.83,6.92,6.92,0,0,1,4.67,2.13,7.13,7.13,0,0,1,2.54,4.49,5.44,5.44,0,0,0,4.49,1.89,26.67,26.67,0,0,0,2.84-.23,24.58,24.58,0,0,1,2.84-.24c.31,0,.39.2.23.59s-.47.67-1.18,1.06a14.08,14.08,0,0,1-5.32,1.3h-1.42a6.85,6.85,0,0,1-2.95-.47q.58,4.5-4.26,12.88Q418.77,242.49,413.44,242.49Zm.71-2.36q3.08,0,6.62-5.56a33.75,33.75,0,0,0,1.83-3.42,23.85,23.85,0,0,0,1.48-4.26,15.87,15.87,0,0,0,.94-5.79,5.63,5.63,0,0,1-5.08-5.08q-3.19.94-6.15,8.15-2.71,6.74-2.71,10.88Q411.08,240.14,414.15,240.13Z"/><path d="M440,241.67a9.73,9.73,0,0,1-2.6-.3,6.72,6.72,0,0,1-1.65-.65c-.95-.71-1.42-2.05-1.42-4a14.32,14.32,0,0,1,.18-2.13c.12-.78.25-1.69.41-2.71A73.41,73.41,0,0,1,438,221.69c.4-1,.73-1.93,1-2.72s.49-1.45.65-2l.59-1.53a59.11,59.11,0,0,0-8.75,1.06h-.11c-.32,0-.48-.39-.48-1.18a1.63,1.63,0,0,1,1.07-1.77c.55-.24,3.58-.55,9.1-.95q.94-3.08,2.3-7.15t3.13-9c.08-.48.4-.71,1-.71s1.34.53,2.13,1.59a5.22,5.22,0,0,1,1.18,3,1.65,1.65,0,0,1-.12.71l-5.79,11.58c1-.08,1.95-.12,2.78-.12h2.42q6.74,0,6.86,1.07c0,.31-1.89.63-5.68.94-1,.08-1.93.14-2.72.18a11.67,11.67,0,0,0-2.12.29l-2.25.36q-1.31,0-3.66,9.81-2.13,8.74-2.13,10.4c0,2.36.87,3.55,2.6,3.55q2,0,7.92-3.2c.47-.31,1.06-.72,1.77-1.24s1.58-1.16,2.6-1.95c1.58-1.34,2.56-2,3-2,.15,0,.27.16.35.48q0,1.65-6.14,5.91Q444.05,241.67,440,241.67Z"/><path d="M461,242.49a5.68,5.68,0,0,1-4.84-2.71,12,12,0,0,1-1.89-7,21.89,21.89,0,0,1,1.18-7q4.37-13.25,10.75-13.83a2.53,2.53,0,0,1,2-.83,6.9,6.9,0,0,1,4.67,2.13,7.09,7.09,0,0,1,2.54,4.49,5.47,5.47,0,0,0,4.49,1.89,26.67,26.67,0,0,0,2.84-.23,24.75,24.75,0,0,1,2.84-.24c.31,0,.39.2.23.59s-.47.67-1.18,1.06a14.08,14.08,0,0,1-5.32,1.3h-1.41a6.87,6.87,0,0,1-3-.47q.59,4.5-4.25,12.88Q466.27,242.49,461,242.49Zm.71-2.36q3.07,0,6.62-5.56a33.75,33.75,0,0,0,1.83-3.42,23.08,23.08,0,0,0,1.48-4.26,16.17,16.17,0,0,0,1-5.79,5.64,5.64,0,0,1-5.09-5.08q-3.18.94-6.14,8.15-2.73,6.74-2.72,10.88Q458.59,240.14,461.66,240.13Z"/><path d="M468.4,288.35q-8.62,0-13.83-5.2A11.31,11.31,0,0,1,450.9,275q0-5.21,4.61-10.17,6-6.61,20-14.54l23.4-13.23a29.07,29.07,0,0,0-.76-3.85c-.36-1.29-.77-2.69-1.25-4.19.08.4-1.34,2.52-4.25,6.38-3.47,4.42-6.27,6.46-8.39,6.15q-3.8-.6-3.79-5.32,0-7.22,6.62-16,7.1-9.21,14.31-9.22a9.15,9.15,0,0,1,4.43,1.13,3.71,3.71,0,0,1,2.07,3.48c0,1.82-.75,2.84-2.25,3.08a4.61,4.61,0,0,0,.71-2.37c0-1.73-1-2.6-3-2.6s-3.94.95-6.14,2.84a41.61,41.61,0,0,0-11.82,16.19,14.25,14.25,0,0,0-1.3,4.73c0,1,.35,1.54,1.06,1.54s2.17-.91,4.14-2.72q2-1.89,8.75-11.47c1.18-1.65,2.12-2.48,2.83-2.48s1,.71,1,2.13c0,1,0,2-.06,2.95s-.06,1.86-.06,2.72a49.27,49.27,0,0,0,.24,5,38.41,38.41,0,0,0,3.36-2.37c1.23-.94,2.5-2.05,3.85-3.31.78-.71,1.34-1.06,1.65-1.06a.21.21,0,0,1,.24.23c0,.56-.55,1.38-1.66,2.49a37.58,37.58,0,0,1-3,2.89q-1.83,1.61-4.32,3.61a59,59,0,0,1,.48,7.44q0,20.22-11.47,32.51Q481.16,288.35,468.4,288.35Zm-2.84-3.3A30.92,30.92,0,0,0,478,282.44a34.58,34.58,0,0,0,13.36-9q8.75-9.45,8.75-24.47c0-1.57-.06-3.17-.18-4.78a49.56,49.56,0,0,0-.65-5q-32.87,19.4-41.37,28.61-4.5,4.84-4.49,9.1a7,7,0,0,0,2,4.73Q458.82,285,465.56,285.05Z"/><path d="M512,241.31c-.79,0-1.14-.39-1.06-1.18.24-1,.51-2.58.83-4.67s.67-4.79,1.06-8.09c.16-1.5.31-2.86.47-4.08s.28-2.35.36-3.37l.35-4.37a3,3,0,0,1,1.6-2.25,5.53,5.53,0,0,1,3-1c1.42,0,1.93.59,1.54,1.78l-1.66,6.14c-.39,1.11-.75,2.25-1.06,3.43s-.67,2.4-1.06,3.67a54.27,54.27,0,0,1,7.09-9.58c3.07-3.15,5.36-4.73,6.85-4.73,1.89,0,3.23,1.07,4,3.19s.91,3.08.12,3.08c-.16,0-.43-.32-.83-1a3.26,3.26,0,0,0-2.95-2.13q-4.73,0-11.7,10.52a45.35,45.35,0,0,0-5.91,13.6A1.06,1.06,0,0,1,512,241.31Z"/><path d="M535.18,241.55q-3.78-.6-3.78-5.32,0-7.22,6.62-16,6.86-9.21,14.18-9.22a9.39,9.39,0,0,1,4.55,1.13,3.71,3.71,0,0,1,2.07,3.48c0,1.82-.75,2.84-2.25,3.08a4.52,4.52,0,0,0,.71-2.37c0-1.73-1-2.6-2.95-2.6s-3.94.95-6.15,2.84a42.3,42.3,0,0,0-11.94,16.19,12.82,12.82,0,0,0-1.18,4.73c0,1,.36,1.54,1.06,1.54s2.17-.91,4.14-2.72q2-1.89,8.75-11.47c1.18-1.65,2.13-2.48,2.84-2.48s.94,1.65.94,5V234q1.07,5.21,3.67,5.2a8.33,8.33,0,0,0,3.48-1,13.52,13.52,0,0,0,4.08-3.25l2.13-2.25c.23-.07.51.08.82.48q-.47,1.29-4.13,4.37-4.62,3.9-8.51,3.9a6.88,6.88,0,0,1-2.13-.35q-3.08-1.07-4-6.62c-.16-1-.29-1.89-.41-2.6a11,11,0,0,1-.18-1.78v-.59a50,50,0,0,1-4.14,5.91C540.06,239.82,537.31,241.86,535.18,241.55Z"/><path d="M570.52,265.9a7.51,7.51,0,0,1-4.73-1.78,8.62,8.62,0,0,1-3.07-5.79,11.45,11.45,0,0,1-.12-1.65V255q0-8,2.84-21.15c.71-3.55,1.43-6.74,2.18-9.58s1.52-5.4,2.31-7.68a4.43,4.43,0,0,1-3.43-.59,2,2,0,0,1-.83-1.42.52.52,0,0,1,.59-.59,14.76,14.76,0,0,0,2.37-.24,14.93,14.93,0,0,1,2-.23q5.31-13.83,8.51-19.51,7.44-13.35,15.13-13.35a9.74,9.74,0,0,1,2.6.35,3.71,3.71,0,0,1,2.84,3.78,2.78,2.78,0,0,1-1.66,2.84,6.53,6.53,0,0,0,.24-1.54q0-3-3.08-2.71-5.31.1-12.64,12.52a92.84,92.84,0,0,0-4.79,8.93,87.39,87.39,0,0,0-3.49,8.57l16.55.23c.24,0,.35.08.35.24l.12.12v.23a8.51,8.51,0,0,1-.35,1.9,12.26,12.26,0,0,1-.83,2.24c-.63,1.66-1.34,2.52-2.13,2.6a11,11,0,0,0-.94,3.07,72,72,0,0,0-1.3,8,19.35,19.35,0,0,0-.24,2.6c0,2.45.63,3.67,1.89,3.67q1.43,0,3.78-2l7.22-6c.31-.24.54-.28.7-.12s.28.32.12.71q-2,3.08-7.44,7.09-4,3-6.62,3-3.79,0-3.79-6.62v-1.42a10.92,10.92,0,0,1,.12-1.54c.16-1,.4-2.28.71-3.78s.75-3.27,1.3-5.32l1.89-6.26a62,62,0,0,1-6.62.12h-5.32q-3.3,8.27-5.31,22.93A125,125,0,0,0,567,253q0,8.16,2.72,10.88a9,9,0,0,0,1.54.94c.55.4.83.63.83.71C572.06,265.78,571.54,265.9,570.52,265.9Z"/><path d="M601.61,241.55q-3.79-.6-3.79-5.32,0-7.22,6.62-16,6.85-9.21,14.19-9.22a9.39,9.39,0,0,1,4.55,1.13,3.71,3.71,0,0,1,2.07,3.48c0,1.82-.75,2.84-2.25,3.08a4.61,4.61,0,0,0,.71-2.37c0-1.73-1-2.6-3-2.6s-3.94.95-6.14,2.84a42.3,42.3,0,0,0-11.94,16.19,12.82,12.82,0,0,0-1.18,4.73c0,1,.35,1.54,1.06,1.54s2.17-.91,4.14-2.72q2-1.89,8.75-11.47c1.18-1.65,2.12-2.48,2.83-2.48s1,1.65,1,5V234q1.06,5.21,3.66,5.2a8.33,8.33,0,0,0,3.49-1,13.52,13.52,0,0,0,4.08-3.25l2.12-2.25c.24-.07.52.08.83.48q-.46,1.29-4.14,4.37-4.6,3.9-8.51,3.9a6.82,6.82,0,0,1-2.12-.35q-3.07-1.07-4-6.62c-.16-1-.3-1.89-.42-2.6a12.06,12.06,0,0,1-.17-1.78v-.59a52.68,52.68,0,0,1-4.14,5.91C606.49,239.82,603.73,241.86,601.61,241.55Z"/></g></svg>